<svg xmlns="http://www.w3.org/2000/svg" width="349.139" height="66.402" viewBox="0 0 349.139 66.402"><g transform="translate(-281.864 -322.318)" style="isolation:isolate"><path d="M323.066,323.988a15.982,15.982,0,0,1,6.064,4.527,20.153,20.153,0,0,1,3.257,5.449,18.159,18.159,0,0,1,1.2,6.811,19.4,19.4,0,0,1-2.329,9.075,13.014,13.014,0,0,1-7.69,6.306,12.1,12.1,0,0,1,6.35,5.119q1.867,3.32,1.868,10.13v4.351a32.674,32.674,0,0,0,.357,6.02,5.407,5.407,0,0,0,2.5,3.692v1.626H319.7q-.616-2.154-.879-3.472a31.825,31.825,0,0,1-.572-5.581l-.087-6.02q-.084-6.2-2.142-8.262t-7.71-2.066h-13.22v25.4H281.864V322.318h30.983Q319.487,322.45,323.066,323.988Zm-27.975,9.58v17.4h14.567a15.5,15.5,0,0,0,6.51-1.055q3.842-1.845,3.84-7.295,0-5.889-3.715-7.91a13.413,13.413,0,0,0-6.26-1.143Z" fill="#032c83"/><path d="M373.154,340.164a19.479,19.479,0,0,1,8.278,7.086,23.546,23.546,0,0,1,3.816,9.9,61.342,61.342,0,0,1,.413,9.507H350.773q.292,7.207,5.01,10.108a12.721,12.721,0,0,0,6.9,1.8,9.724,9.724,0,0,0,9.532-5.493h12.787q-.505,4.263-4.643,8.657-6.437,6.988-18.021,6.988a26.11,26.11,0,0,1-16.872-5.894q-7.311-5.893-7.31-19.178,0-12.444,6.6-19.087t17.129-6.642A27.261,27.261,0,0,1,373.154,340.164Zm-18.737,10.819a13.017,13.017,0,0,0-3.336,7.414h21.577q-.342-4.988-3.336-7.569a10.978,10.978,0,0,0-7.428-2.582Q357.071,348.246,354.417,350.983Z" fill="#032c83"/><path d="M386.776,387.094l16.348-24.258-15.645-23.555h15.337l8,13.874,7.819-13.874h14.9L417.8,362.616l16.347,24.478h-15.6l-8.244-14.4-8.324,14.4Z" transform="translate(-2)" fill="#032c83"/><path d="M465.75,356.376a11.09,11.09,0,0,0-1.8-4.834q-2.117-2.9-6.564-2.9-6.345,0-8.678,6.284a26.07,26.07,0,0,0-1.234,8.854,23.969,23.969,0,0,0,1.234,8.46q2.246,5.978,8.458,5.977,4.4,0,6.255-2.373a11.805,11.805,0,0,0,2.247-6.153h12.788a20.949,20.949,0,0,1-4.135,10.811q-5.9,8.217-17.464,8.218t-17.024-6.856q-5.454-6.855-5.454-17.777,0-12.324,6.025-19.181t16.629-6.855q9.018,0,14.758,4.043t6.8,14.282Z" transform="translate(-2)" fill="#032c83"/><path d="M517.915,340.164a19.479,19.479,0,0,1,8.278,7.086,23.545,23.545,0,0,1,3.816,9.9,61.338,61.338,0,0,1,.413,9.507H495.535q.291,7.207,5.009,10.108a12.723,12.723,0,0,0,6.9,1.8,9.724,9.724,0,0,0,9.532-5.493h12.787q-.505,4.263-4.643,8.657-6.437,6.988-18.021,6.988a26.11,26.11,0,0,1-16.872-5.894q-7.311-5.893-7.31-19.178,0-12.444,6.6-19.087t17.129-6.642A27.257,27.257,0,0,1,517.915,340.164Zm-18.736,10.819a13.017,13.017,0,0,0-3.337,7.414h21.577q-.342-4.988-3.336-7.569a10.978,10.978,0,0,0-7.428-2.582Q501.833,348.246,499.179,350.983Z" transform="translate(-3)" fill="#032c83"/><path d="M569.769,340.164a19.471,19.471,0,0,1,8.277,7.086,23.547,23.547,0,0,1,3.817,9.9,61.239,61.239,0,0,1,.412,9.507H547.388q.293,7.207,5.009,10.108a12.727,12.727,0,0,0,6.906,1.8,9.728,9.728,0,0,0,9.532-5.493h12.787q-.506,4.263-4.643,8.657-6.438,6.988-18.021,6.988a26.112,26.112,0,0,1-16.873-5.894q-7.31-5.893-7.309-19.178,0-12.444,6.6-19.087t17.128-6.642A27.265,27.265,0,0,1,569.769,340.164Zm-18.737,10.819A13.01,13.01,0,0,0,547.7,358.4h21.577q-.342-4.988-3.336-7.569a10.979,10.979,0,0,0-7.429-2.582Q553.686,348.246,551.032,350.983Z" transform="translate(-3)" fill="#032c83"/><path d="M615.81,339.963a15.211,15.211,0,0,1,5.493,5.295V322.406H634v64.688H621.83v-6.636a17.662,17.662,0,0,1-6.108,6.2,17.15,17.15,0,0,1-8.526,1.934,17.8,17.8,0,0,1-14.128-6.789q-5.734-6.792-5.735-17.425,0-12.261,5.647-19.292a18.372,18.372,0,0,1,15.1-7.031A15.447,15.447,0,0,1,615.81,339.963Zm3.076,34.123a17.479,17.479,0,0,0,2.768-10.239q0-8.79-4.438-12.569a9.556,9.556,0,0,0-6.328-2.285q-5.495,0-8.064,4.153a19.238,19.238,0,0,0-2.571,10.3q0,6.636,2.615,10.613a8.843,8.843,0,0,0,7.932,3.977A9.248,9.248,0,0,0,618.886,374.086Z" transform="translate(-3)" fill="#032c83"/></g></svg>